<svg width="15" height="14" viewBox="0 0 15 14" fill="none" xmlns="http://www.w3.org/2000/svg">
<path d="M10.4345 7.30953L6.05953 11.6845C6.01888 11.7252 5.97063 11.7574 5.91752 11.7794C5.86441 11.8014 5.80748 11.8127 5.75 11.8127C5.69251 11.8127 5.63559 11.8014 5.58248 11.7794C5.52937 11.7574 5.48112 11.7252 5.44047 11.6845C5.39982 11.6439 5.36758 11.5956 5.34558 11.5425C5.32358 11.4894 5.31226 11.4325 5.31226 11.375C5.31226 11.3175 5.32358 11.2606 5.34558 11.2075C5.36758 11.1544 5.39982 11.1061 5.44047 11.0655L9.50648 7L5.44047 2.93453C5.35837 2.85244 5.31226 2.7411 5.31226 2.625C5.31226 2.5089 5.35837 2.39756 5.44047 2.31547C5.52256 2.23338 5.6339 2.18726 5.75 2.18726C5.8661 2.18726 5.97744 2.23338 6.05953 2.31547L10.4345 6.69047C10.4752 6.7311 10.5075 6.77935 10.5295 6.83246C10.5515 6.88557 10.5628 6.9425 10.5628 7C10.5628 7.05749 10.5515 7.11442 10.5295 7.16754C10.5075 7.22065 10.4752 7.2689 10.4345 7.30953Z" fill="#979099"/>
</svg>
